<svg width="120.00000000000001" height="120.00000000000001" xmlns="http://www.w3.org/2000/svg">
 <!-- Created with Method Draw - http://github.com/duopixel/Method-Draw/ -->
 <defs>
  <filter height="200%" width="200%" y="-50%" x="-50%" id="svg_27_blur">
   <feGaussianBlur stdDeviation="0" in="SourceGraphic"/>
  </filter>
 </defs>
 <g>
  <title>background</title>
  <rect fill="none" id="canvas_background" height="122" width="122" y="-1" x="-1"/>
  <g display="none" overflow="visible" y="0" x="0" height="100%" width="100%" id="canvasGrid">
   <rect fill="url(#gridpattern)" stroke-width="0" y="0" x="0" height="100%" width="100%"/>
  </g>
 </g>
 <g>
  <title>Layer 1</title>
  <style transform="matrix(1.9753777928744967,0,0,1.9753777928744967,0,0) " type="text/css">.st0{fill:#1D1D1B;}</style>
  <g stroke="null" filter="url(#svg_27_blur)" id="svg_27">
   <g stroke="null" transform="matrix(2.9874403300844836,0,0,2.9377838742727573,33.46345674877671,-18.7290329189604) " id="svg_5">
    <g stroke="null" id="svg_6">
     <path stroke="null" id="svg_7" d="m22.80661,59.16668l0,0l-5.3,0l0,-2.9l4.5,0l0,0c0.4,0 0.7,-0.3 0.7,-0.7s-0.3,-0.7 -0.7,-0.7l0,0l-4.5,0l0,-2l5.2,0l0,0c0.4,0 0.7,-0.3 0.7,-0.7c0,-0.4 -0.3,-0.7 -0.7,-0.7l0,0l-5.9,0l0,0c-0.4,0 -0.7,0.3 -0.7,0.7l0,7.7c0,0.4 0.3,0.7 0.7,0.7l0,0l6.1,0l0,0c0.4,0 0.7,-0.3 0.7,-0.7c0,-0.4 -0.4,-0.7 -0.8,-0.7z" class="st0"/>
     <path stroke="null" id="svg_8" d="m75.50661,54.76668c-1.5,-0.3 -2.5,-0.5 -2.5,-1.1c0,-0.7 1.4,-1 2.4,-1c1.1,0 2.1,0.2 2.8,0.6l0,0c0.1,0 0.2,0.1 0.3,0.1c0.4,0 0.7,-0.3 0.7,-0.7c0,-0.3 -0.2,-0.5 -0.4,-0.7l0,0c-0.9,-0.5 -2.2,-0.7 -3.5,-0.7c-2.4,0 -3.9,1 -3.9,2.5c0,1.9 2,2.3 3.7,2.5c2.1,0.4 2.9,0.7 2.9,1.6c0,1.4 -1.8,1.5 -2.2,1.5c-1.3,0 -2.3,-0.2 -3.4,-0.7c-0.1,0 -0.2,-0.1 -0.3,-0.1c-0.4,0 -0.7,0.3 -0.7,0.7c0,0.3 0.2,0.6 0.4,0.7l0,0l0,0l0,0c1.3,0.6 2.5,0.8 4,0.8c2.2,0 3.7,-1.2 3.7,-2.9c0.2,-2.3 -2.2,-2.8 -4,-3.1z" class="st0"/>
     <path stroke="null" id="svg_9" d="m56.70661,51.36668c-0.4,0 -0.7,0.3 -0.7,0.7l0,5.8l-5.7,-6.3l0,0c-0.1,-0.1 -0.3,-0.2 -0.5,-0.2c-0.4,0 -0.7,0.3 -0.7,0.7l0,7.7c0,0.4 0.3,0.7 0.7,0.7c0.4,0 0.7,-0.3 0.7,-0.7l0,-5.8l5.7,6.3l0,0c0.1,0.1 0.3,0.2 0.5,0.2c0.4,0 0.7,-0.3 0.7,-0.7l0,-7.7c0,-0.3 -0.3,-0.7 -0.7,-0.7z" class="st0"/>
     <path stroke="null" id="svg_10" d="m45.00661,59.16668l0,0l-5.3,0l0,-2.9l4.5,0l0,0c0.4,0 0.7,-0.3 0.7,-0.7s-0.3,-0.7 -0.7,-0.7l0,0l-4.5,0l0,-2l5.2,0l0,0c0.4,0 0.7,-0.3 0.7,-0.7c0,-0.4 -0.3,-0.7 -0.7,-0.7l0,0l-5.9,0l0,0c-0.4,0 -0.7,0.3 -0.7,0.7l0,7.7c0,0.4 0.3,0.7 0.7,0.7l0,0l6.1,0l0,0c0.4,0 0.7,-0.3 0.7,-0.7c-0.1,-0.4 -0.4,-0.7 -0.8,-0.7z" class="st0"/>
     <path stroke="null" id="svg_11" d="m2.60661,54.76668c-1.5,-0.3 -2.5,-0.5 -2.5,-1.1c0,-0.7 1.4,-1 2.4,-1c1.1,0 2.1,0.2 2.8,0.6l0,0c0.1,0 0.2,0.1 0.3,0.1c0.4,0 0.7,-0.3 0.7,-0.7c0,-0.3 -0.2,-0.5 -0.4,-0.7l0,0c-0.9,-0.5 -2.2,-0.7 -3.5,-0.7c-2.4,0 -3.9,1 -3.9,2.5c0,1.9 2,2.3 3.7,2.5c2.1,0.4 2.9,0.7 2.9,1.6c0,1.4 -1.8,1.5 -2.2,1.5c-1.3,0 -2.3,-0.2 -3.4,-0.7l0,0c-0.1,0 -0.2,-0.1 -0.3,-0.1c-0.4,0 -0.7,0.3 -0.7,0.7c0,0.3 0.2,0.6 0.5,0.7c1.3,0.6 2.5,0.8 4,0.8c2.2,0 3.7,-1.2 3.7,-2.9c0.1,-2.3 -2.3,-2.8 -4.1,-3.1z" class="st0"/>
     <path stroke="null" id="svg_12" d="m-16.69339,51.36668c-0.4,0 -0.7,0.3 -0.7,0.7l0,5.8l-5.7,-6.3l0,0c-0.1,-0.1 -0.3,-0.2 -0.5,-0.2c-0.4,0 -0.7,0.3 -0.7,0.7l0,7.7c0,0.4 0.3,0.7 0.7,0.7s0.7,-0.3 0.7,-0.7l0,-5.8l5.7,6.3l0,0c0.1,0.1 0.3,0.2 0.5,0.2c0.4,0 0.7,-0.3 0.7,-0.7l0,-7.7c0,-0.3 -0.3,-0.7 -0.7,-0.7z" class="st0"/>
     <path stroke="null" id="svg_13" d="m-8.49339,51.36668l0,0l-2.9,0c-0.4,0 -0.7,0.3 -0.7,0.7l0,7.7c0,0.4 0.3,0.7 0.7,0.7l2.9,0l0,0c2.5,0 4.6,-2.1 4.6,-4.6c0,-2.5 -2,-4.5 -4.6,-4.5zm0,7.8l-2.2,0l0,-6.3l2.2,0c1.7,0 3.1,1.4 3.1,3.1c0,1.8 -1.4,3.2 -3.1,3.2z" class="st0"/>
     <path stroke="null" id="svg_14" d="m-28.29339,59.16668l0,0l-5.3,0l0,-2.9l4.5,0l0,0c0.4,0 0.7,-0.3 0.7,-0.7s-0.3,-0.7 -0.7,-0.7l0,0l-4.5,0l0,-2l5.2,0l0,0c0.4,0 0.7,-0.3 0.7,-0.7c0,-0.4 -0.3,-0.7 -0.7,-0.7l0,0l-6,0l0,0c-0.4,0 -0.7,0.3 -0.7,0.7l0,7.7c0,0.4 0.3,0.7 0.7,0.7l0,0l6.1,0l0,0c0.4,0 0.7,-0.3 0.7,-0.7s-0.3,-0.7 -0.7,-0.7z" class="st0"/>
     <path stroke="null" id="svg_15" d="m-39.59339,51.36668c-0.4,0 -0.7,0.3 -0.7,0.7l0,7.7c0,0.4 0.3,0.7 0.7,0.7s0.7,-0.3 0.7,-0.7l0,-7.7c0.1,-0.3 -0.3,-0.7 -0.7,-0.7z" class="st0"/>
     <path stroke="null" id="svg_16" d="m-43.79339,54.36668c0,-1.6 -1.3,-2.9 -2.9,-2.9l0,0l-4.4,0c-0.4,0 -0.7,0.3 -0.7,0.7l0,7.7c0,0.4 0.3,0.7 0.7,0.7s0.7,-0.3 0.7,-0.7l0,-2.6l3.3,0l1.8,3l0,0c0.1,0.2 0.4,0.4 0.6,0.4c0.4,0 0.7,-0.3 0.7,-0.7c0,-0.1 0,-0.3 -0.1,-0.4l0,0l-1.5,-2.4c1.1,-0.6 1.8,-1.6 1.8,-2.8zm-2.9,1.5l-3.7,0l0,-3l3.7,0c0.8,0 1.5,0.7 1.5,1.5c-0.1,0.8 -0.7,1.5 -1.5,1.5z" class="st0"/>
     <path stroke="null" id="svg_17" d="m-55.59339,51.36668l0,0l-5.9,0l0,0c-0.4,0 -0.7,0.3 -0.7,0.7l0,7.7c0,0.4 0.3,0.7 0.7,0.7s0.7,-0.3 0.7,-0.7l0,-3.7l4.5,0l0,0c0.4,0 0.7,-0.3 0.7,-0.7c0,-0.4 -0.3,-0.7 -0.7,-0.7l0,0l-4.5,0l0,-1.8l5.2,0l0,0c0.4,0 0.7,-0.3 0.7,-0.7c0,-0.4 -0.3,-0.8 -0.7,-0.8z" class="st0"/>
     <path stroke="null" id="svg_18" d="m68.60661,51.36668l0,0l-7.7,0l0,0l0,0c-0.4,0 -0.7,0.3 -0.7,0.7c0,0.4 0.3,0.7 0.7,0.7l0,0l0,0l3.1,0l0,7c0,0.4 0.3,0.7 0.7,0.7s0.7,-0.3 0.7,-0.7l0,-7l3.1,0l0,0c0.4,0 0.7,-0.3 0.7,-0.7c0.2,-0.3 -0.1,-0.7 -0.6,-0.7z" class="st0"/>
     <path stroke="null" id="svg_19" d="m34.60661,51.36668c-0.3,0 -0.5,0.2 -0.7,0.4l0,0l-3.4,6.6l-3.4,-6.6l0,0c-0.1,-0.2 -0.4,-0.4 -0.7,-0.4c-0.4,0 -0.7,0.3 -0.7,0.7c0,0.1 0,0.2 0.1,0.3l0,0l4.1,7.9l0,0c0.1,0.2 0.4,0.4 0.7,0.4s0.5,-0.2 0.7,-0.4l0,0l4.1,-7.9l0,0c0.1,-0.1 0.1,-0.2 0.1,-0.3c-0.1,-0.3 -0.5,-0.7 -0.9,-0.7z" class="st0"/>
    </g>
    <g stroke="null" id="svg_20">
     <path stroke="null" id="svg_21" d="m-6.89339,27.86668l8.3,-8.3c0.6,-0.6 0.6,-1.5 0,-2.1s-1.5,-0.6 -2.1,0l-8.3,8.3c-0.6,0.6 -0.6,1.5 0,2.1s1.5,0.6 2.1,0z" class="st0"/>
     <path stroke="null" id="svg_22" d="m-2.69339,32.06668l8.3,-8.3c0.6,-0.6 0.6,-1.5 0,-2.1s-1.5,-0.6 -2.1,0l-8.3,8.3c-0.6,0.6 -0.6,1.5 0,2.1c0.6,0.6 1.5,0.6 2.1,0z" class="st0"/>
     <circle stroke="null" id="svg_23" r="1.5" cy="35.16668" cx="0.40661" class="st0"/>
     <path stroke="null" id="svg_24" d="m18.10661,17.46668c-0.6,-0.6 -1.5,-0.6 -2.1,0l-12.5,12.5c-0.6,0.6 -0.6,1.5 0,2.1s1.5,0.6 2.1,0l12.5,-12.5c0.6,-0.6 0.6,-1.5 0,-2.1z" class="st0"/>
     <path stroke="null" id="svg_25" d="m20.20661,21.66668l-8.3,8.3c-0.6,0.6 -0.6,1.5 0,2.1s1.5,0.6 2.1,0l8.3,-8.3c0.6,-0.6 0.6,-1.5 0,-2.1c-0.6,-0.6 -1.5,-0.6 -2.1,0z" class="st0"/>
     <path stroke="null" id="svg_26" d="m24.40661,25.76668l-8.3,8.3c-0.6,0.6 -0.6,1.5 0,2.1s1.5,0.6 2.1,0l8.3,-8.3c0.6,-0.6 0.6,-1.5 0,-2.1s-1.5,-0.6 -2.1,0z" class="st0"/>
    </g>
   </g>
  </g>
 </g>
</svg>