<?xml version="1.0" encoding="utf-8"?>
<!-- Generator: Adobe Illustrator 22.0.1, SVG Export Plug-In . SVG Version: 6.00 Build 0)  -->

<svg version="1.1" id="Слой_1" xmlns="http://www.w3.org/2000/svg" xmlns:xlink="http://www.w3.org/1999/xlink" x="0px" y="0px"
	 viewBox="0 0 142.3 43.6"  style="cursor:pointer;" xml:space="preserve">
<style type="text/css">
	.st0{fill:#FFFFFF;
	}
</style>
<g>
	<g>
		<path class="st0" d="M85.2,42.1L85.2,42.1h-5.3v-2.9h4.5l0,0c0.4,0,0.7-0.3,0.7-0.7s-0.3-0.7-0.7-0.7l0,0h-4.5v-2h5.2l0,0
			c0.4,0,0.7-0.3,0.7-0.7c0-0.4-0.3-0.7-0.7-0.7l0,0h-5.9l0,0c-0.4,0-0.7,0.3-0.7,0.7v7.7c0,0.4,0.3,0.7,0.7,0.7l0,0h6.1l0,0
			c0.4,0,0.7-0.3,0.7-0.7C86,42.4,85.6,42.1,85.2,42.1z"/>
		<path class="st0" d="M137.9,37.7c-1.5-0.3-2.5-0.5-2.5-1.1c0-0.7,1.4-1,2.4-1c1.1,0,2.1,0.2,2.8,0.6l0,0c0.1,0,0.2,0.1,0.3,0.1
			c0.4,0,0.7-0.3,0.7-0.7c0-0.3-0.2-0.5-0.4-0.7l0,0c-0.9-0.5-2.2-0.7-3.5-0.7c-2.4,0-3.9,1-3.9,2.5c0,1.9,2,2.3,3.7,2.5
			c2.1,0.4,2.9,0.7,2.9,1.6c0,1.4-1.8,1.5-2.2,1.5c-1.3,0-2.3-0.2-3.4-0.7c-0.1,0-0.2-0.1-0.3-0.1c-0.4,0-0.7,0.3-0.7,0.7
			c0,0.3,0.2,0.6,0.4,0.7l0,0l0,0l0,0c1.3,0.6,2.5,0.8,4,0.8c2.2,0,3.7-1.2,3.7-2.9C142.1,38.5,139.7,38,137.9,37.7z"/>
		<path class="st0" d="M119.1,34.3c-0.4,0-0.7,0.3-0.7,0.7v5.8l-5.7-6.3l0,0c-0.1-0.1-0.3-0.2-0.5-0.2c-0.4,0-0.7,0.3-0.7,0.7v7.7
			c0,0.4,0.3,0.7,0.7,0.7c0.4,0,0.7-0.3,0.7-0.7v-5.8l5.7,6.3l0,0c0.1,0.1,0.3,0.2,0.5,0.2c0.4,0,0.7-0.3,0.7-0.7V35
			C119.8,34.7,119.5,34.3,119.1,34.3z"/>
		<path class="st0" d="M107.4,42.1L107.4,42.1h-5.3v-2.9h4.5l0,0c0.4,0,0.7-0.3,0.7-0.7s-0.3-0.7-0.7-0.7l0,0h-4.5v-2h5.2l0,0
			c0.4,0,0.7-0.3,0.7-0.7c0-0.4-0.3-0.7-0.7-0.7l0,0h-5.9l0,0c-0.4,0-0.7,0.3-0.7,0.7v7.7c0,0.4,0.3,0.7,0.7,0.7l0,0h6.1l0,0
			c0.4,0,0.7-0.3,0.7-0.7C108.1,42.4,107.8,42.1,107.4,42.1z"/>
		<path class="st0" d="M65,37.7c-1.5-0.3-2.5-0.5-2.5-1.1c0-0.7,1.4-1,2.4-1c1.1,0,2.1,0.2,2.8,0.6l0,0c0.1,0,0.2,0.1,0.3,0.1
			c0.4,0,0.7-0.3,0.7-0.7c0-0.3-0.2-0.5-0.4-0.7l0,0c-0.9-0.5-2.2-0.7-3.5-0.7c-2.4,0-3.9,1-3.9,2.5c0,1.9,2,2.3,3.7,2.5
			c2.1,0.4,2.9,0.7,2.9,1.6c0,1.4-1.8,1.5-2.2,1.5c-1.3,0-2.3-0.2-3.4-0.7l0,0c-0.1,0-0.2-0.1-0.3-0.1c-0.4,0-0.7,0.3-0.7,0.7
			c0,0.3,0.2,0.6,0.5,0.7c1.3,0.6,2.5,0.8,4,0.8c2.2,0,3.7-1.2,3.7-2.9C69.2,38.5,66.8,38,65,37.7z"/>
		<path class="st0" d="M45.7,34.3c-0.4,0-0.7,0.3-0.7,0.7v5.8l-5.7-6.3l0,0c-0.1-0.1-0.3-0.2-0.5-0.2c-0.4,0-0.7,0.3-0.7,0.7v7.7
			c0,0.4,0.3,0.7,0.7,0.7s0.7-0.3,0.7-0.7v-5.8l5.7,6.3l0,0c0.1,0.1,0.3,0.2,0.5,0.2c0.4,0,0.7-0.3,0.7-0.7V35
			C46.4,34.7,46.1,34.3,45.7,34.3z"/>
		<path class="st0" d="M53.9,34.3L53.9,34.3H51c-0.4,0-0.7,0.3-0.7,0.7v7.7c0,0.4,0.3,0.7,0.7,0.7h2.9l0,0c2.5,0,4.6-2.1,4.6-4.6
			C58.5,36.3,56.5,34.3,53.9,34.3z M53.9,42.1h-2.2v-6.3h2.2c1.7,0,3.1,1.4,3.1,3.1C57,40.7,55.6,42.1,53.9,42.1z"/>
		<path class="st0" d="M34.1,42.1L34.1,42.1h-5.3v-2.9h4.5l0,0c0.4,0,0.7-0.3,0.7-0.7s-0.3-0.7-0.7-0.7l0,0h-4.5v-2H34l0,0
			c0.4,0,0.7-0.3,0.7-0.7c0-0.4-0.3-0.7-0.7-0.7l0,0h-6l0,0c-0.4,0-0.7,0.3-0.7,0.7v7.7c0,0.4,0.3,0.7,0.7,0.7l0,0h6.1l0,0
			c0.4,0,0.7-0.3,0.7-0.7S34.5,42.1,34.1,42.1z"/>
		<path class="st0" d="M22.8,34.3c-0.4,0-0.7,0.3-0.7,0.7v7.7c0,0.4,0.3,0.7,0.7,0.7s0.7-0.3,0.7-0.7V35
			C23.6,34.7,23.2,34.3,22.8,34.3z"/>
		<path class="st0" d="M18.6,37.3c0-1.6-1.3-2.9-2.9-2.9l0,0h-4.4c-0.4,0-0.7,0.3-0.7,0.7v7.7c0,0.4,0.3,0.7,0.7,0.7
			s0.7-0.3,0.7-0.7v-2.6h3.3l1.8,3l0,0c0.1,0.2,0.4,0.4,0.6,0.4c0.4,0,0.7-0.3,0.7-0.7c0-0.1,0-0.3-0.1-0.4l0,0l-1.5-2.4
			C17.9,39.5,18.6,38.5,18.6,37.3z M15.7,38.8H12v-3h3.7c0.8,0,1.5,0.7,1.5,1.5C17.1,38.1,16.5,38.8,15.7,38.8z"/>
		<path class="st0" d="M6.8,34.3L6.8,34.3H0.9l0,0c-0.4,0-0.7,0.3-0.7,0.7v7.7c0,0.4,0.3,0.7,0.7,0.7s0.7-0.3,0.7-0.7V39h4.5l0,0
			c0.4,0,0.7-0.3,0.7-0.7c0-0.4-0.3-0.7-0.7-0.7l0,0H1.6v-1.8h5.2l0,0c0.4,0,0.7-0.3,0.7-0.7C7.5,34.7,7.2,34.3,6.8,34.3z"/>
		<path class="st0" d="M131,34.3L131,34.3h-7.7l0,0l0,0c-0.4,0-0.7,0.3-0.7,0.7c0,0.4,0.3,0.7,0.7,0.7l0,0l0,0h3.1v7
			c0,0.4,0.3,0.7,0.7,0.7s0.7-0.3,0.7-0.7v-7h3.1l0,0c0.4,0,0.7-0.3,0.7-0.7C131.8,34.7,131.5,34.3,131,34.3z"/>
		<path class="st0" d="M97,34.3c-0.3,0-0.5,0.2-0.7,0.4l0,0l-3.4,6.6l-3.4-6.6l0,0c-0.1-0.2-0.4-0.4-0.7-0.4c-0.4,0-0.7,0.3-0.7,0.7
			c0,0.1,0,0.2,0.1,0.3l0,0l4.1,7.9l0,0c0.1,0.2,0.4,0.4,0.7,0.4s0.5-0.2,0.7-0.4l0,0l4.1-7.9l0,0c0.1-0.1,0.1-0.2,0.1-0.3
			C97.8,34.7,97.4,34.3,97,34.3z"/>
	</g>
	<g>
		<path class="st0" d="M55.5,10.8l8.3-8.3c0.6-0.6,0.6-1.5,0-2.1s-1.5-0.6-2.1,0l-8.3,8.3c-0.6,0.6-0.6,1.5,0,2.1
			S54.9,11.4,55.5,10.8z"/>
		<path class="st0" d="M59.7,15L68,6.7c0.6-0.6,0.6-1.5,0-2.1s-1.5-0.6-2.1,0l-8.3,8.3c-0.6,0.6-0.6,1.5,0,2.1
			C58.2,15.6,59.1,15.6,59.7,15z"/>
		<circle class="st0" cx="62.8" cy="18.1" r="1.5"/>
		<path class="st0" d="M80.5,0.4c-0.6-0.6-1.5-0.6-2.1,0L65.9,12.9c-0.6,0.6-0.6,1.5,0,2.1s1.5,0.6,2.1,0L80.5,2.5
			C81.1,1.9,81.1,1,80.5,0.4z"/>
		<path class="st0" d="M82.6,4.6l-8.3,8.3c-0.6,0.6-0.6,1.5,0,2.1s1.5,0.6,2.1,0l8.3-8.3c0.6-0.6,0.6-1.5,0-2.1
			C84.1,4,83.2,4,82.6,4.6z"/>
		<path class="st0" d="M86.8,8.7L78.5,17c-0.6,0.6-0.6,1.5,0,2.1s1.5,0.6,2.1,0l8.3-8.3c0.6-0.6,0.6-1.5,0-2.1S87.4,8.1,86.8,8.7z"
			/>
	</g>
</g>
</svg>