<svg width="102" height="61" xmlns="http://www.w3.org/2000/svg">
 <!-- Created with Method Draw - http://github.com/duopixel/Method-Draw/ -->
 <defs>
  <filter id="svg_27_blur" x="-50%" y="-50%" width="200%" height="200%">
   <feGaussianBlur stdDeviation="0"/>
  </filter>
 </defs>
 <g>
  <title>background</title>
  <rect x="-1" y="-1" width="104" height="63" id="canvas_background" fill="none"/>
  <g id="canvasGrid" display="none">
   <rect id="svg_1" width="100%" height="100%" x="0" y="0" stroke-width="0" fill="url(#gridpattern)"/>
  </g>
 </g>
 <g>
  <title>Layer 1</title>
  <style type="text/css">.st0{fill:#1D1D1B;}</style>
  <g stroke="null" id="svg_27" filter="url(#svg_27_blur)">
   <g stroke="null" id="svg_5" transform="matrix(2.676951092358579,0,0,2.6324555078646465,58.13604229870515,-20.532107813898904) ">
    <g stroke="null" id="svg_6">
     <path stroke="null" class="st0" d="m11.23263,51.2091l0,0l-5.3,0l0,-2.9l4.5,0l0,0c0.4,0 0.7,-0.3 0.7,-0.7s-0.3,-0.7 -0.7,-0.7l0,0l-4.5,0l0,-2l5.2,0l0,0c0.4,0 0.7,-0.3 0.7,-0.7c0,-0.4 -0.3,-0.7 -0.7,-0.7l0,0l-5.9,0l0,0c-0.4,0 -0.7,0.3 -0.7,0.7l0,7.7c0,0.4 0.3,0.7 0.7,0.7l0,0l6.1,0l0,0c0.4,0 0.7,-0.3 0.7,-0.7c0,-0.4 -0.4,-0.7 -0.8,-0.7z" id="svg_7"/>
     <path stroke="null" class="st0" d="m63.93263,46.8091c-1.5,-0.3 -2.5,-0.5 -2.5,-1.1c0,-0.7 1.4,-1 2.4,-1c1.1,0 2.1,0.2 2.8,0.6l0,0c0.1,0 0.2,0.1 0.3,0.1c0.4,0 0.7,-0.3 0.7,-0.7c0,-0.3 -0.2,-0.5 -0.4,-0.7l0,0c-0.9,-0.5 -2.2,-0.7 -3.5,-0.7c-2.4,0 -3.9,1 -3.9,2.5c0,1.9 2,2.3 3.7,2.5c2.1,0.4 2.9,0.7 2.9,1.6c0,1.4 -1.8,1.5 -2.2,1.5c-1.3,0 -2.3,-0.2 -3.4,-0.7c-0.1,0 -0.2,-0.1 -0.3,-0.1c-0.4,0 -0.7,0.3 -0.7,0.7c0,0.3 0.2,0.6 0.4,0.7l0,0l0,0l0,0c1.3,0.6 2.5,0.8 4,0.8c2.2,0 3.7,-1.2 3.7,-2.9c0.2,-2.3 -2.2,-2.8 -4,-3.1z" id="svg_8"/>
     <path stroke="null" class="st0" d="m45.13263,43.4091c-0.4,0 -0.7,0.3 -0.7,0.7l0,5.8l-5.7,-6.3l0,0c-0.1,-0.1 -0.3,-0.2 -0.5,-0.2c-0.4,0 -0.7,0.3 -0.7,0.7l0,7.7c0,0.4 0.3,0.7 0.7,0.7c0.4,0 0.7,-0.3 0.7,-0.7l0,-5.8l5.7,6.3l0,0c0.1,0.1 0.3,0.2 0.5,0.2c0.4,0 0.7,-0.3 0.7,-0.7l0,-7.7c0,-0.3 -0.3,-0.7 -0.7,-0.7z" id="svg_9"/>
     <path stroke="null" class="st0" d="m33.43263,51.2091l0,0l-5.3,0l0,-2.9l4.5,0l0,0c0.4,0 0.7,-0.3 0.7,-0.7s-0.3,-0.7 -0.7,-0.7l0,0l-4.5,0l0,-2l5.2,0l0,0c0.4,0 0.7,-0.3 0.7,-0.7c0,-0.4 -0.3,-0.7 -0.7,-0.7l0,0l-5.9,0l0,0c-0.4,0 -0.7,0.3 -0.7,0.7l0,7.7c0,0.4 0.3,0.7 0.7,0.7l0,0l6.1,0l0,0c0.4,0 0.7,-0.3 0.7,-0.7c-0.1,-0.4 -0.4,-0.7 -0.8,-0.7z" id="svg_10"/>
     <path stroke="null" class="st0" d="m-8.96737,46.8091c-1.5,-0.3 -2.5,-0.5 -2.5,-1.1c0,-0.7 1.4,-1 2.4,-1c1.1,0 2.1,0.2 2.8,0.6l0,0c0.1,0 0.2,0.1 0.3,0.1c0.4,0 0.7,-0.3 0.7,-0.7c0,-0.3 -0.2,-0.5 -0.4,-0.7l0,0c-0.9,-0.5 -2.2,-0.7 -3.5,-0.7c-2.4,0 -3.9,1 -3.9,2.5c0,1.9 2,2.3 3.7,2.5c2.1,0.4 2.9,0.7 2.9,1.6c0,1.4 -1.8,1.5 -2.2,1.5c-1.3,0 -2.3,-0.2 -3.4,-0.7l0,0c-0.1,0 -0.2,-0.1 -0.3,-0.1c-0.4,0 -0.7,0.3 -0.7,0.7c0,0.3 0.2,0.6 0.5,0.7c1.3,0.6 2.5,0.8 4,0.8c2.2,0 3.7,-1.2 3.7,-2.9c0.1,-2.3 -2.3,-2.8 -4.1,-3.1z" id="svg_11"/>
     <path stroke="null" class="st0" d="m-28.26737,43.4091c-0.4,0 -0.7,0.3 -0.7,0.7l0,5.8l-5.7,-6.3l0,0c-0.1,-0.1 -0.3,-0.2 -0.5,-0.2c-0.4,0 -0.7,0.3 -0.7,0.7l0,7.7c0,0.4 0.3,0.7 0.7,0.7s0.7,-0.3 0.7,-0.7l0,-5.8l5.7,6.3l0,0c0.1,0.1 0.3,0.2 0.5,0.2c0.4,0 0.7,-0.3 0.7,-0.7l0,-7.7c0,-0.3 -0.3,-0.7 -0.7,-0.7z" id="svg_12"/>
     <path stroke="null" class="st0" d="m-20.06737,43.4091l0,0l-2.9,0c-0.4,0 -0.7,0.3 -0.7,0.7l0,7.7c0,0.4 0.3,0.7 0.7,0.7l2.9,0l0,0c2.5,0 4.6,-2.1 4.6,-4.6c0,-2.5 -2,-4.5 -4.6,-4.5zm0,7.8l-2.2,0l0,-6.3l2.2,0c1.7,0 3.1,1.4 3.1,3.1c0,1.8 -1.4,3.2 -3.1,3.2z" id="svg_13"/>
     <path stroke="null" class="st0" d="m-39.86737,51.2091l0,0l-5.3,0l0,-2.9l4.5,0l0,0c0.4,0 0.7,-0.3 0.7,-0.7s-0.3,-0.7 -0.7,-0.7l0,0l-4.5,0l0,-2l5.2,0l0,0c0.4,0 0.7,-0.3 0.7,-0.7c0,-0.4 -0.3,-0.7 -0.7,-0.7l0,0l-6,0l0,0c-0.4,0 -0.7,0.3 -0.7,0.7l0,7.7c0,0.4 0.3,0.7 0.7,0.7l0,0l6.1,0l0,0c0.4,0 0.7,-0.3 0.7,-0.7s-0.3,-0.7 -0.7,-0.7z" id="svg_14"/>
     <path stroke="null" class="st0" d="m-51.16737,43.4091c-0.4,0 -0.7,0.3 -0.7,0.7l0,7.7c0,0.4 0.3,0.7 0.7,0.7s0.7,-0.3 0.7,-0.7l0,-7.7c0.1,-0.3 -0.3,-0.7 -0.7,-0.7z" id="svg_15"/>
     <path stroke="null" class="st0" d="m-55.36737,46.4091c0,-1.6 -1.3,-2.9 -2.9,-2.9l0,0l-4.4,0c-0.4,0 -0.7,0.3 -0.7,0.7l0,7.7c0,0.4 0.3,0.7 0.7,0.7s0.7,-0.3 0.7,-0.7l0,-2.6l3.3,0l1.8,3l0,0c0.1,0.2 0.4,0.4 0.6,0.4c0.4,0 0.7,-0.3 0.7,-0.7c0,-0.1 0,-0.3 -0.1,-0.4l0,0l-1.5,-2.4c1.1,-0.6 1.8,-1.6 1.8,-2.8zm-2.9,1.5l-3.7,0l0,-3l3.7,0c0.8,0 1.5,0.7 1.5,1.5c-0.1,0.8 -0.7,1.5 -1.5,1.5z" id="svg_16"/>
     <path stroke="null" class="st0" d="m-67.16737,43.4091l0,0l-5.9,0l0,0c-0.4,0 -0.7,0.3 -0.7,0.7l0,7.7c0,0.4 0.3,0.7 0.7,0.7s0.7,-0.3 0.7,-0.7l0,-3.7l4.5,0l0,0c0.4,0 0.7,-0.3 0.7,-0.7c0,-0.4 -0.3,-0.7 -0.7,-0.7l0,0l-4.5,0l0,-1.8l5.2,0l0,0c0.4,0 0.7,-0.3 0.7,-0.7c0,-0.4 -0.3,-0.8 -0.7,-0.8z" id="svg_17"/>
     <path stroke="null" class="st0" d="m57.03263,43.4091l0,0l-7.7,0l0,0l0,0c-0.4,0 -0.7,0.3 -0.7,0.7c0,0.4 0.3,0.7 0.7,0.7l0,0l0,0l3.1,0l0,7c0,0.4 0.3,0.7 0.7,0.7s0.7,-0.3 0.7,-0.7l0,-7l3.1,0l0,0c0.4,0 0.7,-0.3 0.7,-0.7c0.2,-0.3 -0.1,-0.7 -0.6,-0.7z" id="svg_18"/>
     <path stroke="null" class="st0" d="m23.03263,43.4091c-0.3,0 -0.5,0.2 -0.7,0.4l0,0l-3.4,6.6l-3.4,-6.6l0,0c-0.1,-0.2 -0.4,-0.4 -0.7,-0.4c-0.4,0 -0.7,0.3 -0.7,0.7c0,0.1 0,0.2 0.1,0.3l0,0l4.1,7.9l0,0c0.1,0.2 0.4,0.4 0.7,0.4s0.5,-0.2 0.7,-0.4l0,0l4.1,-7.9l0,0c0.1,-0.1 0.1,-0.2 0.1,-0.3c-0.1,-0.3 -0.5,-0.7 -0.9,-0.7z" id="svg_19"/>
    </g>
    <g stroke="null" id="svg_20">
     <path stroke="null" class="st0" d="m-18.46737,19.9091l8.3,-8.3c0.6,-0.6 0.6,-1.5 0,-2.1s-1.5,-0.6 -2.1,0l-8.3,8.3c-0.6,0.6 -0.6,1.5 0,2.1s1.5,0.6 2.1,0z" id="svg_21"/>
     <path stroke="null" class="st0" d="m-14.26737,24.1091l8.3,-8.3c0.6,-0.6 0.6,-1.5 0,-2.1s-1.5,-0.6 -2.1,0l-8.3,8.3c-0.6,0.6 -0.6,1.5 0,2.1c0.6,0.6 1.5,0.6 2.1,0z" id="svg_22"/>
     <circle stroke="null" class="st0" cx="-11.16737" cy="27.2091" r="1.5" id="svg_23"/>
     <path stroke="null" class="st0" d="m6.53263,9.5091c-0.6,-0.6 -1.5,-0.6 -2.1,0l-12.5,12.5c-0.6,0.6 -0.6,1.5 0,2.1s1.5,0.6 2.1,0l12.5,-12.5c0.6,-0.6 0.6,-1.5 0,-2.1z" id="svg_24"/>
     <path stroke="null" class="st0" d="m8.63263,13.7091l-8.3,8.3c-0.6,0.6 -0.6,1.5 0,2.1s1.5,0.6 2.1,0l8.3,-8.3c0.6,-0.6 0.6,-1.5 0,-2.1c-0.6,-0.6 -1.5,-0.6 -2.1,0z" id="svg_25"/>
     <path stroke="null" class="st0" d="m12.83263,17.8091l-8.3,8.3c-0.6,0.6 -0.6,1.5 0,2.1s1.5,0.6 2.1,0l8.3,-8.3c0.6,-0.6 0.6,-1.5 0,-2.1s-1.5,-0.6 -2.1,0z" id="svg_26"/>
    </g>
   </g>
  </g>
 </g>
</svg>