<svg width="249" height="48" viewBox="0 0 249 48" fill="none" xmlns="http://www.w3.org/2000/svg">
<path fill-rule="evenodd" clip-rule="evenodd" d="M186.525 8.00815C187.147 8.55331 187.62 9.18076 187.931 9.88536C188.242 10.59 188.397 11.3048 188.397 12.0454C188.397 12.7809 188.242 13.5009 187.931 14.2055C187.62 14.9101 187.153 15.5324 186.525 16.0827C186.306 16.2782 186.041 16.4736 185.742 16.6639C185.436 16.8542 185.091 17.029 184.705 17.1833C184.319 17.3376 183.887 17.4662 183.42 17.5639C182.954 17.6616 182.441 17.7131 181.882 17.7131C181.324 17.7131 180.811 17.6616 180.345 17.5639C179.878 17.4662 179.446 17.3376 179.06 17.1833C178.668 17.029 178.323 16.8542 178.023 16.6639C177.718 16.4736 177.459 16.2782 177.24 16.0827C176.618 15.5376 176.145 14.9101 175.834 14.2055C175.523 13.5009 175.368 12.7809 175.368 12.0454C175.368 11.31 175.523 10.59 175.834 9.88536C176.145 9.18076 176.612 8.55846 177.24 8.00815C177.459 7.81272 177.724 7.61728 178.023 7.42699C178.328 7.2367 178.674 7.06183 179.06 6.90754C179.446 6.75325 179.878 6.62467 180.345 6.52696C180.811 6.42924 181.324 6.37781 181.882 6.37781C182.435 6.37781 182.954 6.42924 183.42 6.52696C183.887 6.62467 184.319 6.75325 184.705 6.90754C185.097 7.06183 185.442 7.2367 185.742 7.42699C186.047 7.61728 186.306 7.81272 186.525 8.00815ZM184.918 14.7301C185.258 14.3958 185.529 14.0101 185.736 13.5575C185.943 13.1049 186.053 12.6009 186.047 12.0454C186.047 11.49 185.943 10.986 185.736 10.5334C185.529 10.0808 185.252 9.68993 184.918 9.36077C184.607 9.06248 184.198 8.79504 183.685 8.5636C183.173 8.33216 182.574 8.21387 181.877 8.21387C181.18 8.21387 180.581 8.33216 180.068 8.5636C179.561 8.79504 179.146 9.06248 178.835 9.36077C178.495 9.69507 178.225 10.0808 178.017 10.5334C177.81 10.9808 177.706 11.4848 177.706 12.0454C177.706 12.6009 177.81 13.1049 178.017 13.5575C178.225 14.0101 178.501 14.401 178.835 14.7301C179.146 15.0284 179.555 15.2958 180.068 15.5273C180.581 15.7587 181.18 15.877 181.877 15.877C182.574 15.877 183.173 15.7587 183.685 15.5273C184.192 15.2958 184.607 15.0284 184.918 14.7301ZM173.092 15.6098C173.15 15.6098 173.208 15.6355 173.259 15.6818C173.311 15.7281 173.34 15.7796 173.352 15.8258V19.426C173.352 19.4774 173.323 19.5288 173.271 19.5751C173.219 19.6214 173.161 19.6471 173.104 19.6471H171.33C171.272 19.6471 171.215 19.6214 171.163 19.5751C171.111 19.5288 171.082 19.4774 171.082 19.426V17.4716H162.407V19.426C162.407 19.4774 162.378 19.5288 162.327 19.5751C162.275 19.6214 162.217 19.6471 162.16 19.6471H160.385C160.328 19.6471 160.27 19.6214 160.218 19.5751C160.166 19.5288 160.138 19.4774 160.138 19.426V15.8258C160.138 15.7744 160.166 15.723 160.218 15.6767C160.27 15.6304 160.328 15.6047 160.385 15.6047H161.134L163.427 6.94381C163.484 6.71752 163.646 6.60437 163.911 6.60437H171.802C171.86 6.60437 171.917 6.63008 171.969 6.67637C172.021 6.72266 172.05 6.77409 172.05 6.82552V15.6098H173.092ZM163.461 15.6098H169.792V8.47129H165.287L163.461 15.6098ZM202.958 9.06817C202.883 8.80587 202.785 8.5693 202.67 8.36872C202.554 8.16814 202.433 7.99327 202.307 7.84927C202.18 7.70526 202.059 7.58697 201.944 7.4944C201.61 7.21667 201.207 6.99552 200.734 6.84123C200.268 6.68694 199.83 6.6098 199.421 6.6098H191.46C191.403 6.6098 191.345 6.63551 191.293 6.6818C191.241 6.72809 191.213 6.77952 191.213 6.83095V17.261C191.213 17.3125 191.241 17.3639 191.293 17.4102C191.345 17.4565 191.403 17.4822 191.46 17.4822H193.235C193.292 17.4822 193.35 17.4565 193.402 17.4102C193.453 17.3639 193.482 17.3125 193.482 17.261V13.2855H199.427C199.83 13.2855 200.268 13.2083 200.74 13.054C201.207 12.8997 201.61 12.6837 201.95 12.4009C202.065 12.3083 202.186 12.19 202.313 12.046C202.439 11.902 202.56 11.7271 202.675 11.5265C202.791 11.326 202.889 11.0945 202.963 10.8374C203.038 10.5802 203.079 10.2819 203.079 9.95277C203.073 9.62362 203.033 9.33561 202.958 9.06817ZM200.256 11.0122C199.945 11.2848 199.53 11.4237 199.023 11.4237H193.476V8.47672H199.023C199.536 8.47672 199.945 8.61558 200.256 8.88816C200.567 9.16074 200.728 9.51561 200.728 9.95277C200.723 10.3796 200.567 10.7345 200.256 11.0122ZM216.528 8.00815C217.15 8.55331 217.622 9.18076 217.933 9.88536C218.25 10.59 218.406 11.3048 218.4 12.0454C218.4 12.7809 218.245 13.5009 217.933 14.2055C217.622 14.9101 217.156 15.5324 216.528 16.0827C216.309 16.2782 216.044 16.4736 215.745 16.6639C215.439 16.8542 215.094 17.029 214.708 17.1833C214.322 17.3376 213.89 17.4662 213.423 17.5639C212.957 17.6616 212.444 17.7131 211.885 17.7131C211.327 17.7131 210.814 17.6616 210.347 17.5639C209.881 17.4662 209.449 17.3376 209.063 17.1833C208.671 17.029 208.326 16.8542 208.026 16.6639C207.726 16.4736 207.461 16.2782 207.243 16.0827C206.621 15.5376 206.148 14.9101 205.837 14.2055C205.526 13.5009 205.371 12.7809 205.371 12.0454C205.371 11.31 205.526 10.59 205.837 9.88536C206.148 9.18076 206.615 8.55846 207.243 8.00815C207.461 7.81272 207.726 7.61728 208.026 7.42699C208.331 7.2367 208.677 7.06183 209.063 6.90754C209.449 6.75325 209.881 6.62467 210.347 6.52696C210.814 6.42924 211.327 6.37781 211.885 6.37781C212.438 6.37781 212.957 6.42924 213.423 6.52696C213.89 6.62467 214.322 6.75325 214.708 6.90754C215.099 7.06183 215.445 7.2367 215.745 7.42699C216.05 7.61728 216.309 7.81272 216.528 8.00815ZM214.927 14.7301C215.267 14.3958 215.537 14.0101 215.745 13.5575C215.952 13.1049 216.056 12.6009 216.056 12.0454C216.056 11.49 215.952 10.986 215.745 10.5334C215.537 10.0808 215.261 9.68993 214.927 9.36077C214.616 9.06248 214.207 8.79504 213.694 8.5636C213.181 8.33216 212.582 8.21387 211.885 8.21387C211.188 8.21387 210.589 8.33216 210.077 8.5636C209.57 8.79504 209.155 9.06248 208.844 9.36077C208.504 9.69507 208.233 10.0808 208.026 10.5334C207.819 10.9808 207.715 11.4848 207.715 12.0454C207.715 12.6009 207.819 13.1049 208.026 13.5575C208.233 14.0101 208.51 14.401 208.844 14.7301C209.155 15.0284 209.564 15.2958 210.077 15.5273C210.589 15.7587 211.188 15.877 211.885 15.877C212.582 15.877 213.181 15.7587 213.694 15.5273C214.201 15.2958 214.616 15.0284 214.927 14.7301ZM223.275 17.4768H221.466C221.409 17.4768 221.351 17.451 221.299 17.4048C221.248 17.3585 221.219 17.307 221.219 17.2556V6.82552C221.219 6.77409 221.248 6.72266 221.299 6.67637C221.351 6.63008 221.409 6.60437 221.466 6.60437H230.925C230.982 6.60437 231.04 6.63008 231.092 6.67637C231.144 6.72266 231.172 6.77409 231.172 6.82552V8.25529C231.172 8.30672 231.144 8.35815 231.092 8.40443C231.04 8.45072 230.982 8.47644 230.925 8.47644H223.517V17.2608C223.517 17.3122 223.488 17.3636 223.436 17.4099C223.39 17.451 223.333 17.4768 223.275 17.4768ZM241.258 6.90295L243.637 17.1787C243.671 17.2919 243.671 17.369 243.648 17.3948C243.614 17.4462 243.556 17.4719 243.476 17.4719H241.667C241.506 17.4719 241.402 17.4308 241.362 17.3536C241.321 17.2765 241.293 17.2147 241.281 17.1736L240.953 15.6204H234.449L234.121 17.1736C234.11 17.2147 234.081 17.2765 234.04 17.3536C234 17.4308 233.896 17.4719 233.735 17.4719H231.926C231.834 17.4719 231.777 17.4462 231.754 17.3948C231.719 17.3639 231.719 17.2919 231.754 17.1787L234.133 6.90295C234.144 6.85152 234.173 6.7898 234.219 6.7178C234.265 6.6458 234.363 6.6098 234.513 6.6098H240.878C241.028 6.6098 241.125 6.6458 241.172 6.7178C241.218 6.7898 241.246 6.85152 241.258 6.90295ZM235.97 8.47158L234.841 13.7638H240.544L239.415 8.47158H235.97ZM172.551 26.1635C172.603 26.2098 172.631 26.2612 172.631 26.3127V36.7427C172.631 36.7942 172.603 36.8456 172.551 36.8919C172.499 36.9382 172.441 36.9639 172.384 36.9639H170.61C170.552 36.9639 170.494 36.9382 170.443 36.8919C170.391 36.8456 170.362 36.7942 170.362 36.7427V27.9533H163.093V36.7376C163.093 36.789 163.064 36.8405 163.012 36.8867C162.96 36.933 162.902 36.9587 162.845 36.9587H161.071C161.013 36.9587 160.956 36.933 160.904 36.8867C160.852 36.8405 160.823 36.789 160.823 36.7376V26.3075C160.823 26.2561 160.852 26.2047 160.904 26.1584C160.956 26.1121 161.013 26.0864 161.071 26.0864H172.372C172.441 26.0915 172.499 26.1172 172.551 26.1635ZM184.977 26.3839L187.356 36.6596C187.39 36.7779 187.39 36.8499 187.367 36.8757C187.333 36.9271 187.275 36.9528 187.194 36.9528H185.386C185.224 36.9528 185.121 36.9117 185.08 36.8345C185.04 36.7574 185.011 36.6956 185 36.6545L184.671 35.1013H178.168L177.84 36.6545C177.828 36.6956 177.8 36.7574 177.759 36.8345C177.719 36.9117 177.615 36.9528 177.454 36.9528H175.645C175.553 36.9528 175.495 36.9271 175.472 36.8757C175.438 36.8448 175.438 36.7728 175.472 36.6596L177.851 26.3839C177.863 26.3324 177.892 26.2707 177.938 26.1987C177.984 26.1267 178.082 26.0907 178.232 26.0907H184.597C184.746 26.0907 184.844 26.1267 184.89 26.1987C184.936 26.2707 184.965 26.3324 184.977 26.3839ZM179.689 27.9525L178.56 33.2447H184.262L183.133 27.9525H179.689ZM204.439 26.1635C204.491 26.2098 204.52 26.2612 204.52 26.3127V36.7427C204.52 36.7942 204.491 36.8456 204.439 36.8919C204.387 36.9382 204.329 36.9639 204.272 36.9639H202.532C202.475 36.9639 202.417 36.9382 202.365 36.8919C202.313 36.8456 202.285 36.7942 202.285 36.7427V29.0282L198.512 36.7273C198.466 36.8199 198.414 36.8816 198.356 36.9125C198.299 36.9433 198.218 36.9587 198.114 36.9587H196.582C196.478 36.9587 196.398 36.9433 196.34 36.9125C196.283 36.8816 196.231 36.8199 196.185 36.7273L192.412 29.0282V36.7427C192.412 36.7942 192.383 36.8456 192.331 36.8919C192.279 36.9382 192.222 36.9639 192.164 36.9639H190.424C190.367 36.9639 190.309 36.9382 190.257 36.8919C190.206 36.8456 190.177 36.7942 190.177 36.7427V26.3075C190.177 26.2561 190.206 26.2047 190.257 26.1584C190.309 26.1121 190.367 26.0864 190.424 26.0864H192.913C193.04 26.0864 193.132 26.1172 193.184 26.1738C193.235 26.2304 193.281 26.2972 193.316 26.3692L197.348 34.4592L201.38 26.3692C201.415 26.2972 201.461 26.2304 201.513 26.1738C201.565 26.1172 201.657 26.0864 201.784 26.0864H204.272C204.329 26.0915 204.387 26.1172 204.439 26.1635ZM219.151 26.0907C219.209 26.0907 219.266 26.1164 219.318 26.1627C219.37 26.209 219.399 26.2553 219.405 26.3067V36.7419C219.405 36.7934 219.376 36.8448 219.324 36.8911C219.272 36.9374 219.214 36.9631 219.157 36.9631H217.383C217.325 36.9631 217.268 36.9374 217.216 36.8911C217.164 36.8448 217.135 36.7934 217.135 36.7419V32.7664H212.913L210.183 36.6802C210.136 36.7522 210.073 36.8191 209.998 36.8757C209.923 36.9322 209.797 36.9631 209.624 36.9631H207.694C207.602 36.9631 207.539 36.9322 207.51 36.8757C207.481 36.8191 207.498 36.7522 207.556 36.6802L210.545 32.6275C210.108 32.5452 209.727 32.4218 209.416 32.2572C209.105 32.0875 208.846 31.9229 208.65 31.7583C208.253 31.4292 207.971 31.064 207.798 30.6731C207.625 30.2771 207.539 29.8554 207.539 29.3977C207.539 28.8422 207.654 28.3588 207.878 27.9628C208.103 27.5616 208.368 27.2325 208.668 26.9753C209.007 26.6924 209.405 26.4764 209.86 26.3221C210.321 26.1678 210.787 26.0907 211.26 26.0907H219.151ZM211.594 30.9046H217.141V27.9525H211.594C211.087 27.9525 210.672 28.0913 210.361 28.3639C210.05 28.6416 209.894 28.9914 209.894 29.4285C209.894 29.8657 210.05 30.2206 210.361 30.4931C210.672 30.7657 211.081 30.9046 211.594 30.9046ZM234.065 26.1632C234.116 26.2095 234.145 26.2609 234.145 26.3124V27.7421C234.145 27.7936 234.116 27.845 234.065 27.8913C234.013 27.9376 233.955 27.9633 233.897 27.9633H229.151V36.7476C229.151 36.799 229.122 36.8505 229.07 36.8967C229.019 36.943 228.961 36.9687 228.903 36.9687H227.095C227.037 36.9687 226.98 36.943 226.928 36.8967C226.876 36.8505 226.847 36.799 226.847 36.7476V27.953H222.101C222.043 27.953 221.985 27.9273 221.934 27.881C221.882 27.8347 221.853 27.7833 221.853 27.7318V26.3021C221.853 26.2507 221.882 26.1992 221.934 26.1529C221.985 26.1066 222.043 26.0809 222.101 26.0809H233.886C233.955 26.0912 234.013 26.1169 234.065 26.1632ZM248.4 36.7376V26.3075C248.4 26.2561 248.372 26.2098 248.32 26.1635C248.268 26.1172 248.21 26.0915 248.153 26.0915H246.672C246.569 26.0915 246.482 26.1069 246.413 26.1378C246.344 26.1686 246.275 26.2201 246.206 26.2921L238.867 33.9912V26.3075C238.867 26.2561 238.839 26.2047 238.787 26.1584C238.735 26.1121 238.677 26.0864 238.62 26.0864H236.846C236.788 26.0864 236.73 26.1121 236.679 26.1584C236.627 26.2047 236.598 26.2561 236.598 26.3075V36.7376C236.598 36.789 236.627 36.8405 236.679 36.8867C236.73 36.933 236.788 36.9587 236.846 36.9587H238.326C238.43 36.9587 238.516 36.9433 238.585 36.9125C238.654 36.8816 238.723 36.8302 238.792 36.7582L246.131 29.059V36.7376C246.131 36.789 246.16 36.8405 246.212 36.8867C246.263 36.933 246.321 36.9587 246.379 36.9587H248.153C248.21 36.9587 248.268 36.933 248.32 36.8867C248.372 36.8405 248.4 36.789 248.4 36.7376Z" fill="#F3D0A7"/>
<path d="M87.3876 0H88.459V41.8438H87.3876V36.6596C87.3127 36.6905 87.2378 36.7059 87.1572 36.7059H81.1954C81.0341 36.7059 80.8786 36.639 80.7346 36.5104C80.5906 36.3819 80.5157 36.243 80.5157 36.099V14.956H76.4375C76.2762 14.956 76.1207 14.8891 75.9767 14.7605C75.8327 14.632 75.7578 14.4931 75.7578 14.3491V11.4896C75.7578 11.145 75.873 10.8981 76.0976 10.7541C76.2244 10.6667 76.3799 10.6101 76.5585 10.5792C76.737 10.5484 76.9559 10.5227 77.2151 10.4918C77.699 10.4352 78.2116 10.3118 78.7416 10.1215C79.2773 9.93636 79.7496 9.66892 80.1758 9.31919C80.5963 8.97461 80.9189 8.60431 81.1436 8.21344C81.3682 7.82257 81.5468 7.45741 81.6793 7.10768C81.7426 6.96368 81.8348 6.80424 81.9442 6.62938C82.0594 6.45452 82.3417 6.36708 82.791 6.36708H87.1514C87.2321 6.36708 87.3069 6.38251 87.3818 6.41337V0H87.3876ZM58.2584 0H59.3298V41.8438H58.2584V36.9579H53.7309C53.5869 36.9579 53.4486 36.891 53.3219 36.7625C53.1952 36.6339 53.1261 36.495 53.1261 36.351V29.7628H37.9192C37.7752 29.7628 37.637 29.6959 37.5103 29.5673C37.3835 29.4388 37.3144 29.2999 37.3144 29.1559V25.2575L53.9901 6.62424H58.2584V0ZM53.1261 14.1639L44.2036 24.5632H53.1261V14.1639ZM116.523 0H117.594V7.02539V36.0373V41.8438H116.523V36.3202C115.388 36.5773 114.242 36.7059 113.072 36.7059H105.814C104.455 36.7059 103.119 36.531 101.811 36.1864C100.504 35.8419 99.3745 35.307 98.4414 34.5818C97.5658 33.9184 96.8573 33.0749 96.3043 32.0463C95.7571 31.0228 95.4806 29.9016 95.4806 28.6879C95.4806 27.9061 95.6074 27.0987 95.8666 26.2604C96.1258 25.4221 96.5635 24.63 97.1741 23.8791C97.4967 23.4728 97.8999 23.0614 98.3895 22.6448C98.8734 22.2282 99.4436 21.8271 100.089 21.4516C98.666 20.7316 97.5831 19.7493 96.8343 18.5047C96.0912 17.26 95.7168 15.9177 95.7168 14.4777C95.7168 13.233 95.9415 12.1581 96.3965 11.2478C96.8516 10.3375 97.4506 9.55063 98.1937 8.88718C98.8388 8.31115 99.7374 7.74542 100.889 7.19511C102.036 6.64481 103.516 6.37223 105.331 6.37223H113.562C114.679 6.37223 115.664 6.48023 116.528 6.68595V0H116.523ZM116.523 26.3838C116.35 26.0135 116.096 25.6689 115.739 25.3552C115.319 24.9797 114.754 24.6712 114.04 24.4243C113.326 24.1774 112.439 24.054 111.373 24.054H107.508C106.442 24.054 105.549 24.1774 104.841 24.4243C104.132 24.6712 103.562 24.9797 103.142 25.3552C102.721 25.7306 102.427 26.1421 102.266 26.5895C102.105 27.037 102.024 27.4638 102.024 27.8701C102.024 28.3587 102.128 28.8216 102.341 29.2588C102.548 29.6908 102.848 30.0765 103.24 30.4057C103.626 30.74 104.081 31.0074 104.599 31.208C105.117 31.4086 105.682 31.5114 106.298 31.5114H112.588C113.205 31.5114 113.769 31.4086 114.288 31.208C114.806 31.0074 115.255 30.74 115.647 30.4057C116.027 30.0816 116.315 29.7113 116.528 29.2896V26.3838H116.523ZM116.523 14.3491C116.373 13.7165 116.044 13.1456 115.52 12.6365C114.794 11.9267 113.619 11.577 112.001 11.577H106.874C105.256 11.577 104.086 11.9319 103.355 12.6365C102.629 13.3462 102.26 14.1742 102.26 15.1257C102.26 16.108 102.658 16.972 103.447 17.7229C104.236 18.4738 105.428 18.8492 107.012 18.8492H111.845C113.429 18.8492 114.622 18.4738 115.411 17.7229C115.987 17.1778 116.35 16.5657 116.511 15.8971V14.3491H116.523ZM145.652 0V48H146.723V0H145.652ZM134.298 19.127L131.724 14.4725L129.149 19.127L123.394 19.8727L127.559 23.4934L126.574 28.6056L131.718 26.1884L136.862 28.6056L135.877 23.4934L140.041 19.8727L134.298 19.127ZM29.1292 6.38251C29.1062 6.37737 29.0831 6.37737 29.0601 6.37737H25.0049C24.5499 6.37737 24.2676 6.4648 24.1582 6.63967C24.043 6.81453 23.9566 6.97396 23.8932 7.11797C23.7607 7.46255 23.5879 7.83285 23.3575 8.22372C23.1329 8.61459 22.8103 8.97975 22.3898 9.32948C21.9693 9.67406 21.4912 9.9415 20.9555 10.1318C20.4198 10.3169 19.9129 10.4404 19.4291 10.5021C19.1699 10.5329 18.951 10.5587 18.7724 10.5895C18.5938 10.6204 18.4383 10.677 18.3116 10.7644C18.0869 10.9084 17.9717 11.1553 17.9717 11.4998V14.3594C17.9717 14.5034 18.0466 14.6422 18.1906 14.7708C18.3346 14.8994 18.4902 14.9662 18.6514 14.9662H22.7296V36.1093C22.7296 36.2533 22.8045 36.3922 22.9485 36.5207C23.0925 36.6493 23.2481 36.7162 23.4093 36.7162H29.0658C29.0889 36.7162 29.1119 36.711 29.135 36.711V41.8541H30.2063V0H29.135V6.38251H29.1292ZM0 48H1.07139V0H0V48Z" fill="#F3D0A7"/>
</svg>
