<?xml version="1.0" encoding="UTF-8" standalone="no"?>
<svg width="72" height="48" viewBox="0 0 72 46" fill="black" xmlns="http://www.w3.org/2000/svg" class="Header_logo__2gAbO"><path d="M13.396 41.0571V45.3984H12.7759V41.5533H10.5432L10.0471 44.2821C9.92301 45.0263 9.42687 45.3984 8.80668 45.3984H8.43457V44.7782H8.80668C9.17879 44.7782 9.42687 44.6542 9.5509 44.2821L10.1711 41.0571H13.396Z" fill="black"></path><path d="M15.2567 41.0562V44.6532L18.4816 41.0562H19.1018V45.3974H18.4816V41.8004L15.2567 45.3974H14.6365V41.0562H15.2567Z" fill="black"></path><path d="M24.3112 41.0562V41.6763H20.9622V45.5215H20.342V41.1802H24.3112V41.0562Z" fill="balck"></path><path d="M27.6603 41.0562L29.5208 45.3974H28.9006L28.6525 44.6532H25.4276L25.1795 45.3974H24.5593L26.4199 41.0562H27.6603ZM25.4276 44.1571H28.2804L27.2881 41.5523H26.668L25.4276 44.1571Z" fill="black"></path><path d="M37.0871 41.0562V41.6763H33.7381V45.5215H33.1179V41.1802H37.0871V41.0562Z" fill="black"></path><path d="M41.8005 41.0562V41.6763H38.5755V42.9167H41.5524V43.5369H38.5755V44.9013H41.9245V45.5215H37.9553V41.1802H41.8005V41.0562Z" fill="black"></path><path d="M45.3975 41.0562C46.3898 41.0562 47.134 41.6763 47.134 42.6686C47.134 43.6609 46.3898 44.2811 45.3975 44.2811H43.4129V45.3974H42.7927V41.0562H45.3975ZM43.5369 43.909H45.5215C46.2658 43.909 46.6379 43.5369 46.6379 42.7927C46.6379 42.1725 46.1417 41.6763 45.5215 41.6763H43.5369V43.909Z" fill="black"></path><path d="M50.4829 45.6455C49.1185 45.6455 48.0022 44.7773 48.0022 43.2888C48.0022 41.9244 49.1185 40.9321 50.4829 40.9321C51.8473 40.9321 52.9637 41.8004 52.9637 43.2888C52.9637 44.6532 51.8473 45.6455 50.4829 45.6455ZM50.4829 45.0253C51.4752 45.0253 52.3435 44.4052 52.3435 43.2888C52.3435 42.1725 51.5993 41.5523 50.4829 41.5523C49.4906 41.5523 48.6224 42.1725 48.6224 43.2888C48.6224 44.4052 49.4906 45.0253 50.4829 45.0253Z" fill="black"></path><path d="M57.8014 41.0562V41.6763H54.5765V42.9167H57.5534V43.5369H54.5765V44.9013H57.9255V45.5215H53.9563V41.1802H57.8014V41.0562Z" fill="black"></path><path d="M61.6465 41.0562C62.3908 41.0562 63.0109 41.5523 63.0109 42.1725C63.0109 42.5446 62.8869 42.7927 62.6388 43.0407C63.135 43.1648 63.3831 43.6609 63.3831 44.1571C63.3831 44.9013 62.7629 45.5215 61.8946 45.5215H58.9177V41.1802H61.6465V41.0562ZM59.5379 42.9167H61.7706C62.1427 42.9167 62.3908 42.6686 62.3908 42.2965C62.3908 41.9244 62.2667 41.6763 61.6465 41.6763H59.5379V42.9167ZM59.5379 44.9013H61.7706C62.3908 44.9013 62.6388 44.5292 62.6388 44.1571C62.6388 43.6609 62.3908 43.4129 61.8946 43.4129H59.4139V44.9013H59.5379Z" fill="black"></path><path d="M31.7535 33.8631L30.017 33.3669L27.6602 30.8862L31.5054 31.8785L32.4977 32.6227V30.7621L24.9314 22.4517L28.4045 22.2036L5.7057 1.73749L8.18644 7.4432L0 0.000976562L8.93066 15.0095L12.7758 18.3585L13.8921 21.0873L11.1633 18.6065L16.869 28.1574L23.6911 29.8939L28.5285 34.2352H31.8775L32.4977 35.9717V34.2352L34.1102 33.739L31.7535 33.8631Z" fill="black"></path><path d="M40.064 33.8621L41.8005 33.366L44.0332 30.8852L40.188 31.8775L39.3198 32.6217V30.7612L46.886 22.4507L43.289 22.2026L65.9877 1.73652L63.631 7.44222L71.8175 0L62.7628 15.0085L59.0417 18.3575L57.8013 21.0863L60.6541 18.6055L54.8244 28.1564L48.1264 29.8929L43.289 34.2342H39.94L39.3198 35.9707V34.2342L37.5833 33.7381L40.064 33.8621Z" fill="black"></path></svg>