<svg width="160" height="35" fill="none" xmlns="http://www.w3.org/2000/svg"><path fill-rule="evenodd" clip-rule="evenodd" d="M154.599 2.738H160v25.833h-5.401V2.738zm-76.451 0v5.963h-7.642c-.497 0-.897.445-.897.994v18.876h-6.297V9.695c0-.549-.4-.994-.897-.994h-7.65V2.738h23.383zm7.194 0h17.989v5.963H86.239c-.497 0-.904.445-.904.994v1.988c0 .549.407.994.904.994h15.291v5.963H86.239c-.497 0-.904.445-.904.994v1.987c0 .55.407.994.904.994h17.092v5.963H85.342c-2.973 0-5.394-2.682-5.394-5.963V8.695c0-3.281 2.421-5.957 5.394-5.957zm26.983 0h17.988v5.963h-17.091c-.497 0-.904.445-.904.994v1.988c0 .549.4.994.904.994h11.691c2.973 0 5.4 2.675 5.4 5.963v3.975c0 3.288-2.427 5.963-5.4 5.963h-17.989v-5.963h17.092c.497 0 .897-.445.897-.994v-1.987c0-.55-.4-.994-.897-.994h-11.691c-2.973 0-5.401-2.676-5.401-5.963V8.7c.007-3.287 2.435-5.963 5.401-5.963zm28.79 19.87h10.794v5.963h-12.594c-2.966 0-5.387-2.676-5.387-5.963V2.738h5.387v17.883c-.007 1.09.8 1.987 1.8 1.987zM46.675 8.674L38.06 0H16.878C7.538.264 0 8.02 0 17.493 0 27.133 7.808 35 17.382 35c9.573 0 17.374-7.867 17.374-17.507V13.49L27.37 6.046a.807.807 0 0 0-1.11.007l-7.388 7.444v9.5l3.973-4.003v-4.003l3.973-4.003v6.498c0 5.233-4.235 9.5-9.435 9.5-5.194 0-9.436-4.267-9.436-9.5s4.235-9.5 9.436-9.5h1.49L26.23.575a.835.835 0 0 1 1.166 0L38.729 11.99v17.507l7.946-8V8.674z" fill="#E22028"/></svg>