<svg width="192" height="39" viewBox="0 0 192 39" fill="none" xmlns="http://www.w3.org/2000/svg">
<path d="M14.275 21.0675C12.1699 21.0675 10.4584 22.6962 10.4584 24.6988C10.4584 26.7014 12.1711 28.33 14.275 28.33C16.379 28.33 18.0917 26.7014 18.0917 24.6988C18.0917 22.6962 16.3802 21.0675 14.275 21.0675ZM14.275 26.0064C13.4688 26.0064 12.814 25.4184 12.814 24.6988C12.814 23.9791 13.4688 23.39 14.275 23.39C15.0813 23.39 15.7361 23.9779 15.7361 24.6988C15.7361 25.4196 15.0801 26.0064 14.275 26.0064Z" fill="#FF6A12"/>
<path d="M65.0558 0.681702C61.6667 0.684002 58.3397 1.5779 55.4181 3.2711C52.4964 4.9643 50.0859 7.3955 48.4354 10.3137C46.6252 8.6061 44.4441 7.3278 42.0578 6.5758C39.6715 5.8239 37.1427 5.6181 34.6636 5.974C32.1845 6.33 29.8204 7.2383 27.7507 8.6301C25.681 10.0219 23.9603 11.8605 22.7194 14.0061C20.2965 12.1751 17.3277 11.185 14.275 11.1898C6.64171 11.1898 0.439606 17.2493 0.439606 24.6988C0.439606 32.1483 6.64171 38.2078 14.275 38.2078C16.3454 38.2102 18.39 37.7554 20.2588 36.877C22.1277 35.9986 23.7733 34.7187 25.075 33.1314C26.7424 34.8676 28.778 36.2196 31.0365 37.0908C33.295 37.962 35.7207 38.3311 38.1405 38.1716C40.5603 38.0121 42.9146 37.328 45.0353 36.1681C47.1561 35.0082 48.991 33.4012 50.4093 31.4615L50.4284 31.4851L50.4475 31.458C52.2307 33.5709 54.4638 35.271 56.9882 36.4375C59.5127 37.604 62.2666 38.2084 65.0546 38.2078C75.5504 38.2078 84.0854 29.7906 84.0854 19.4448C84.0854 9.099 75.5492 0.681702 65.0558 0.681702ZM37.0414 35.8842C35.032 35.8859 33.0455 35.4643 31.2148 34.6476C29.3841 33.8309 27.7515 32.638 26.4263 31.1488C26.9176 30.2696 27.3069 29.3386 27.5868 28.3736C28.7373 30.0209 30.31 31.3382 32.1448 32.1913C33.9796 33.0444 36.011 33.4028 38.032 33.2302C40.053 33.0575 41.9915 32.3598 43.6501 31.2082C45.3087 30.0566 46.6281 28.4922 47.474 26.6744C47.4783 26.6827 47.4819 26.6913 47.4848 26.7002C47.8923 27.6599 48.3798 28.5846 48.9423 29.4648C47.664 31.4332 45.904 33.0529 43.8243 34.1747C41.7446 35.2965 39.412 35.8844 37.0414 35.8842ZM27.9375 22.0541C27.9375 17.1247 32.0237 13.1171 37.0462 13.1171C39.2672 13.116 41.412 13.9149 43.0774 15.3637C44.7428 16.8125 45.8139 18.8112 46.0893 20.9841C46.0976 21.0534 46.1048 21.1228 46.112 21.1922C46.112 21.2087 46.112 21.2263 46.112 21.2428C46.1191 21.3204 46.1251 21.398 46.131 21.4779V21.5144C46.1406 21.679 46.1465 21.8437 46.1465 22.0106C46.1465 26.9401 42.0603 30.9477 37.0378 30.9477C34.8815 30.9461 32.7956 30.1905 31.1511 28.8153C29.5066 27.44 28.4102 25.5343 28.0567 23.437C28.0329 23.1924 28.0043 22.9514 27.9673 22.7103C27.9673 22.6986 27.9673 22.6868 27.9613 22.6739C27.9375 22.4704 27.9375 22.2611 27.9375 22.0541ZM65.0558 35.8842C62.4718 35.8842 59.9233 35.2916 57.6117 34.1532C55.3001 33.0147 53.2888 31.3618 51.7368 29.3249C51.7368 29.3343 51.7272 29.3437 51.7213 29.3531C49.921 26.9943 48.8006 24.1999 48.4783 21.2651C48.4592 21.0934 48.4425 20.9217 48.4294 20.75C48.2107 18.8985 47.5256 17.1302 46.4364 15.6065C45.2401 13.9258 43.6026 12.5977 41.6993 11.7644C39.7959 10.9311 37.6985 10.6241 35.6317 10.8763C33.5649 11.1284 31.6066 11.9303 29.9667 13.1959C28.3269 14.4615 27.0671 16.1432 26.3225 18.0607C26.3179 18.0544 26.3139 18.0477 26.3106 18.0407C25.8246 19.3078 25.5761 20.6513 25.5771 22.0059C25.5771 22.3364 25.5926 22.6633 25.6212 22.9878C25.6427 23.2395 25.6729 23.4888 25.7119 23.7357C25.7393 24.0532 25.7548 24.3742 25.7548 24.6988C25.7563 26.1834 25.4532 27.653 24.8639 29.0192C24.516 29.8235 24.0736 30.5848 23.5459 31.2875C22.4734 32.7157 21.0758 33.8757 19.4655 34.6741C17.8553 35.4725 16.0774 35.887 14.275 35.8842C7.94531 35.8842 2.79521 30.8665 2.79521 24.6988C2.79521 18.5311 7.94531 13.5122 14.275 13.5122C16.9813 13.5082 19.6025 14.4446 21.6781 16.1569C21.3159 17.075 21.04 18.0241 20.854 18.992C20.0211 18.0882 19.0053 17.3664 17.8721 16.8732C16.739 16.38 15.5136 16.1264 14.275 16.1287C9.40751 16.1287 5.44901 19.9728 5.44901 24.6988C5.44901 29.4248 9.40871 33.2689 14.275 33.2689C15.8657 33.2725 17.4279 32.8535 18.7976 32.056C20.1672 31.2585 21.2937 30.112 22.0586 28.7369C22.7447 27.4986 23.1036 26.1099 23.1022 24.6988C23.1022 24.4789 23.0927 24.2614 23.076 24.045C23.0569 23.802 23.0275 23.5613 22.9877 23.323C22.946 22.8891 22.9233 22.4504 22.9233 22.0059C22.923 20.6688 23.1194 19.3387 23.5066 18.0572C23.761 17.2143 24.0973 16.3975 24.5108 15.6183C25.6667 13.4356 27.3884 11.5938 29.5009 10.2803C31.6133 8.9668 34.0409 8.2285 36.5368 8.1406C39.0326 8.0526 41.5075 8.6182 43.7096 9.7796C45.9118 10.9411 47.7625 12.6571 49.0735 14.7528C50.1628 16.4877 50.8469 18.4399 51.076 20.4678C51.0891 20.6395 51.1058 20.81 51.1249 20.9805C51.5078 24.3575 53.1388 27.4771 55.7066 29.7436C58.2744 32.0102 61.599 33.2648 65.0455 33.2679C68.4919 33.2711 71.8189 32.0225 74.3909 29.7607C76.9629 27.4988 78.5998 24.3822 78.989 21.0059C79.3782 17.6297 78.4925 14.2304 76.5009 11.4571C74.5092 8.6839 71.5514 6.7311 68.1921 5.9716C64.8328 5.2122 61.3074 5.6992 58.2892 7.3398C55.2711 8.9804 52.9715 11.6596 51.8298 14.8657C51.3505 13.9106 50.7764 13.0046 50.1159 12.1611C51.4962 9.4158 53.6262 7.1048 56.2662 5.4881C58.9063 3.8714 61.9515 3.0132 65.0593 3.01C74.2503 3.0053 81.7286 10.3843 81.7286 19.4448C81.7286 28.5053 74.2503 35.8842 65.0558 35.8842ZM20.7454 24.6988C20.7454 28.1431 17.8424 30.9453 14.275 30.9453C10.7076 30.9453 7.80451 28.1407 7.80451 24.6988C7.80451 21.2569 10.7064 18.4511 14.275 18.4511C17.4631 18.4511 20.1193 20.6854 20.6488 23.6252C20.6711 23.847 20.6985 24.0677 20.7311 24.2872C20.7407 24.4213 20.7454 24.5589 20.7454 24.6988ZM53.3911 19.4448C53.3922 16.4535 54.5758 13.5804 56.6907 11.4356C58.8056 9.2908 61.6851 8.0432 64.7179 7.9578C67.7506 7.8723 70.6977 8.9557 72.9334 10.9779C75.1691 13.0001 76.5172 15.8018 76.6916 18.7882C76.866 21.7745 75.8529 24.7103 73.8674 26.9721C71.8818 29.2339 69.0803 30.6436 66.0577 30.9019C63.035 31.1601 60.0293 30.2466 57.6787 28.3553C55.3281 26.464 53.8179 23.7438 53.4686 20.7724C53.4555 20.6007 53.4388 20.4302 53.4197 20.2597C53.4006 19.9908 53.3911 19.7192 53.3911 19.4448Z" fill="#FF6A12"/>
<path d="M65.0558 28.3301C66.8382 28.3301 68.5806 27.809 70.0627 26.8327C71.5447 25.8563 72.6998 24.4686 73.3819 22.8451C74.064 21.2215 74.2425 19.435 73.8947 17.7114C73.547 15.9878 72.6887 14.4046 71.4283 13.162C70.168 11.9193 68.5622 11.0731 66.814 10.7302C65.0658 10.3874 63.2538 10.5634 61.607 11.2359C59.9603 11.9084 58.5528 13.0472 57.5625 14.5084C56.5722 15.9696 56.0437 17.6875 56.0437 19.4448C56.0465 21.8005 56.9969 24.0589 58.6864 25.7246C60.3759 27.3903 62.6665 28.3273 65.0558 28.3301ZM65.0558 12.8831C66.3721 12.8831 67.6588 13.268 68.7533 13.989C69.8478 14.71 70.7008 15.7348 71.2045 16.9338C71.7082 18.1328 71.84 19.4521 71.5832 20.7249C71.3264 21.9978 70.6926 23.1669 69.7618 24.0846C68.8311 25.0023 67.6452 25.6272 66.3542 25.8804C65.0632 26.1336 63.725 26.0036 62.5089 25.507C61.2928 25.0104 60.2534 24.1693 59.5221 23.0903C58.7908 22.0112 58.4005 20.7426 58.4005 19.4448C58.4024 17.7051 59.1042 16.0372 60.3519 14.8071C61.5996 13.5769 63.2913 12.885 65.0558 12.8831Z" fill="#FF6A12"/>
<path d="M48.4789 21.2157C48.4668 21.0428 48.4499 20.8711 48.4294 20.7006C48.4427 20.8735 48.4596 21.0452 48.4789 21.2157Z" fill="#FF6A12"/>
<path d="M37.0415 28.3301C38.3084 28.3222 39.5445 27.9446 40.594 27.2449C41.6435 26.5452 42.4593 25.5548 42.9386 24.3985C43.4179 23.2423 43.5391 21.972 43.2871 20.7478C43.035 19.5237 42.4209 18.4006 41.5223 17.5202C40.6236 16.6397 39.4806 16.0414 38.2375 15.8006C36.9943 15.5598 35.7067 15.6873 34.537 16.1671C33.3673 16.6469 32.3679 17.4575 31.6648 18.4966C30.9618 19.5358 30.5866 20.7569 30.5865 22.006C30.5935 23.688 31.2771 25.2987 32.4873 26.4843C33.6975 27.67 35.3354 28.3338 37.0415 28.3301ZM37.0415 18.0043C37.8416 18.0129 38.6212 18.2546 39.2823 18.6991C39.9433 19.1436 40.4562 19.771 40.7564 20.5023C41.0566 21.2336 41.1306 22.0361 40.9692 22.8088C40.8078 23.5814 40.4181 24.2898 39.8493 24.8446C39.2804 25.3994 38.5578 25.7759 37.7724 25.9266C36.987 26.0774 36.1739 25.9957 35.4355 25.6919C34.697 25.388 34.0663 24.8756 33.6226 24.2191C33.179 23.5626 32.9422 22.7913 32.9421 22.0024C32.9497 20.9368 33.3854 19.9176 34.1538 19.1682C34.9222 18.4187 35.9606 18.0002 37.0415 18.0043Z" fill="#FF6A12"/>
<path d="M113.168 5.8828C113.168 6.7914 112.959 7.4519 112.541 7.8643C112.123 8.2766 111.453 8.4828 110.531 8.4828H104.992C104.069 8.4828 103.399 8.2766 102.982 7.8643C102.564 7.4519 102.355 6.7914 102.355 5.8828V3.2817C102.355 2.3723 102.564 1.7114 102.982 1.2991C103.399 0.886701 104.069 0.680904 104.992 0.681704H110.531C111.454 0.681704 112.124 0.887501 112.541 1.2991C112.959 1.7106 113.168 2.3715 113.168 3.2817V5.8828ZM104.729 5.8828C104.729 6.4026 104.992 6.6625 105.52 6.6625H106.706V2.5056H105.52C104.992 2.5056 104.729 2.7655 104.729 3.2852V5.8828ZM110.795 3.2817C110.795 2.7619 110.531 2.502 110.003 2.502H108.81V6.6625H110.003C110.531 6.6625 110.795 6.4026 110.795 5.8828V3.2817Z" fill="black"/>
<path d="M108.816 5.2325H106.706V9.7834H108.816V5.2325Z" fill="black"/>
<path d="M121.816 9.7822H114.497V0.681702H121.816V2.5056H116.871V4.26H120.761V6.0804H116.871V7.9619H121.816V9.7822Z" fill="black"/>
<path d="M124.849 0.681702H131.766V7.9619H132.755V11.472H130.514L130.391 9.7822H125.249L125.117 11.472H122.877V7.9619H123.733C123.879 7.8001 124.003 7.6211 124.103 7.4292C124.211 7.2313 124.301 7.0247 124.373 6.8118C124.46 6.5534 124.512 6.2843 124.525 6.0122L124.849 0.681702ZM129.398 7.9619V2.5056H126.959L126.761 5.7558C126.747 6.0594 126.698 6.3605 126.615 6.6531C126.547 6.8933 126.463 7.1289 126.365 7.3586C126.275 7.5719 126.164 7.7762 126.035 7.9689L129.398 7.9619Z" fill="black"/>
<path d="M141.793 9.7822H134.475V0.681702H141.793V2.5056H136.848V4.26H140.738V6.0804H136.848V7.9619H141.793V9.7822Z" fill="black"/>
<path d="M143.511 0.681702H149.049C149.972 0.681702 150.642 0.887499 151.06 1.2991C151.477 1.7106 151.686 2.3715 151.686 3.2817V4.5822C151.686 5.4924 151.477 6.1533 151.06 6.5649C150.642 6.9764 149.972 7.1822 149.049 7.1822H145.884V9.7822H143.511V0.681702ZM149.312 3.2817C149.312 2.7619 149.049 2.502 148.522 2.502H145.884V5.3619H148.52C149.048 5.3619 149.311 5.102 149.311 4.5822L149.312 3.2817Z" fill="black"/>
<path d="M154.386 9.7822H151.815L155.309 0.681702H157.943L161.437 9.7822H158.866L158.27 8.1571H154.973L154.386 9.7822ZM155.579 6.4673H157.689L156.633 3.4098L155.579 6.4673Z" fill="black"/>
<path d="M162.759 9.7822V0.681702H165.132V7.9619H168.429V0.681702H170.802V7.9619H171.792V11.472H169.55L169.418 9.7822H162.759Z" fill="black"/>
<path d="M181.55 9.78219H179.173V4.19179L176.007 9.78219H173.503V0.681694H175.876V6.26849L179.04 0.678192H181.545L181.55 9.78219Z" fill="black"/>
<path d="M191.703 9.7822H189.329V6.7918H187.549L185.901 9.7822H183.396L185.111 6.6625C184.548 6.5319 184.144 6.2685 183.897 5.8687C183.65 5.4689 183.529 4.9115 183.529 4.1918V3.2817C183.529 2.3715 183.737 1.7106 184.155 1.2991C184.572 0.887499 185.243 0.681702 186.166 0.681702H191.705L191.703 9.7822ZM185.901 4.1918C185.901 4.7116 186.165 4.9719 186.692 4.9727H189.329V2.5056H186.687C186.16 2.5056 185.896 2.7654 185.896 3.2852L185.901 4.1918Z" fill="black"/>
<path d="M107.631 24.0544H105.196V16.5849H102.355V14.7175H110.466V16.5849H107.625L107.631 24.0544Z" fill="black"/>
<path d="M112.095 14.7175H117.777C118.724 14.7175 119.411 14.9288 119.839 15.3514C120.267 15.7739 120.481 16.452 120.482 17.3857V18.7192C120.482 19.6529 120.268 20.3306 119.839 20.7524C119.411 21.1741 118.723 21.3854 117.777 21.3862H114.528V24.0544H112.095V14.7175ZM118.047 17.3857C118.047 16.8518 117.776 16.5849 117.236 16.5849H114.528V19.5188H117.233C117.775 19.5188 118.045 19.2523 118.044 18.7192L118.047 17.3857Z" fill="black"/>
<path d="M130.63 24.0544H128.194V18.3194L124.948 24.0544H122.377V14.7175H124.813V20.4525L128.059 14.7175H130.63V24.0544Z" fill="black"/>
<path d="M134.618 24.0544H131.98L135.565 14.7175H138.27L141.855 24.0544H139.217L138.609 22.3869H135.226L134.618 24.0544ZM135.836 20.6524H137.999L136.918 17.5186L135.836 20.6524Z" fill="black"/>
<path d="M146.86 24.0544H144.426V16.5849H141.585V14.7175H149.701V16.5849H146.86V24.0544Z" fill="black"/>
<path d="M153.759 22.12C153.713 22.7597 153.506 23.2642 153.136 23.6334C152.766 24.0027 152.275 24.1873 151.662 24.1873C151.49 24.1873 151.322 24.1802 151.155 24.1673C150.988 24.1544 150.837 24.1379 150.702 24.1203C150.54 24.1026 150.386 24.0803 150.241 24.0544V22.2529H150.85C150.929 22.2551 151.008 22.2409 151.082 22.2111C151.155 22.1813 151.222 22.1367 151.277 22.08C151.389 21.9648 151.454 21.8128 151.459 21.6532L151.865 14.7152H159.379V24.0521H156.943V16.5849H154.102L153.759 22.12Z" fill="black"/>
<path d="M170.194 21.5203C170.194 22.454 169.98 23.1317 169.553 23.5534C169.125 23.9752 168.437 24.1865 167.489 24.1873H164.108C163.161 24.1873 162.473 23.976 162.044 23.5534C161.616 23.1309 161.402 22.4532 161.402 21.5203V17.2517C161.402 16.318 161.616 15.6402 162.044 15.2185C162.473 14.7967 163.161 14.5854 164.108 14.5847H167.484C168.431 14.5847 169.119 14.7959 169.548 15.2185C169.976 15.641 170.19 16.3188 170.189 17.2517L170.194 21.5203ZM167.76 17.2517C167.76 16.7194 167.489 16.4528 166.948 16.452H164.648C164.108 16.452 163.838 16.7186 163.837 17.2517V21.5203C163.837 22.0526 164.107 22.3191 164.648 22.3199H166.948C167.489 22.3199 167.76 22.0534 167.76 21.5203V17.2517Z" fill="black"/>
<path d="M180.475 24.0544H178.04V20.2526H174.659V24.0544H172.223V14.7175H174.659V18.3805H178.04V14.7175H180.475V24.0544Z" fill="black"/>
<path d="M184.466 24.0544H181.828L185.413 14.7175H188.118L191.704 24.0544H189.065L188.456 22.3869H185.074L184.466 24.0544ZM185.684 20.6524H187.847L186.766 17.5186L185.684 20.6524Z" fill="black"/>
<path d="M103.02 28.9956H108.603C109.533 28.9956 110.209 29.203 110.63 29.6177C111.052 30.0324 111.262 30.6988 111.261 31.6168V32.9268C111.261 33.844 111.051 34.5103 110.63 34.9258C110.21 35.3413 109.534 35.5491 108.603 35.5491H105.412V38.1702H103.02V28.9956ZM108.864 31.6168C108.864 31.0923 108.598 30.8301 108.067 30.8301H105.409V33.7135H108.067C108.599 33.7135 108.865 33.4512 108.864 32.9268V31.6168Z" fill="black"/>
<path d="M121.495 35.6784C121.495 36.5956 121.284 37.262 120.864 37.6775C120.443 38.093 119.767 38.3003 118.836 38.2996H115.513C114.583 38.2996 113.907 38.0922 113.486 37.6775C113.064 37.2628 112.854 36.5964 112.855 35.6784V31.4851C112.855 30.5679 113.065 29.9015 113.486 29.486C113.906 29.0705 114.582 28.8632 115.513 28.864H118.836C119.766 28.864 120.442 29.0713 120.864 29.486C121.285 29.9007 121.496 30.5671 121.495 31.4851V35.6784ZM119.102 31.4851C119.102 30.9614 118.837 30.6996 118.305 30.6996H116.039C115.507 30.6996 115.241 30.9614 115.241 31.4851V35.6784C115.241 36.2029 115.507 36.4651 116.039 36.4651H118.305C118.836 36.4651 119.101 36.2029 119.102 35.6784V31.4851Z" fill="black"/>
<path d="M125.748 38.2078C124.88 38.2078 124.244 38.0087 123.84 37.6105C123.436 37.2122 123.232 36.5898 123.228 35.7431V31.5909C123.228 30.6815 123.439 30.0218 123.86 29.6118C124.281 29.2018 124.957 28.9964 125.888 28.9956H130.673V30.8301H126.419C125.888 30.8301 125.622 31.0911 125.622 31.6132V35.7842C125.615 35.8719 125.628 35.9599 125.659 36.0422C125.69 36.1245 125.739 36.1992 125.802 36.2611C125.866 36.3231 125.942 36.3709 126.025 36.4012C126.109 36.4316 126.198 36.4437 126.287 36.4369H128.287C128.531 36.4356 128.772 36.3959 129.003 36.3193H130.673V38.0314C130.09 38.1422 129.498 38.1985 128.905 38.1996H125.755L125.748 38.2078Z" fill="black"/>
<path d="M134.653 38.2078C133.784 38.2078 133.148 38.0087 132.744 37.6105C132.34 37.2122 132.137 36.5898 132.134 35.7431V31.5909C132.134 30.6815 132.344 30.0218 132.765 29.6118C133.185 29.2018 133.861 28.9964 134.792 28.9956H139.575V30.8301H135.317C134.785 30.8301 134.519 31.0911 134.519 31.6132V35.7842C134.513 35.8719 134.525 35.9599 134.557 36.0422C134.588 36.1245 134.637 36.1992 134.7 36.2611C134.763 36.3231 134.839 36.3709 134.923 36.4012C135.006 36.4316 135.096 36.4437 135.185 36.4369H137.19C137.433 36.4356 137.675 36.3959 137.905 36.3193H139.575V38.0314C138.992 38.1422 138.401 38.1985 137.807 38.1996H134.657L134.653 38.2078Z" fill="black"/>
<path d="M149.405 38.169H147.013V32.534L143.823 38.169H141.298V28.9968H143.691V34.6319L146.88 28.9968H149.405V38.169Z" fill="black"/>
<path d="M159.772 38.169H157.38V32.534L154.19 38.169H151.666V28.9968H154.057V34.6319L157.247 28.9968H159.772V38.169Z" fill="black"/>
<path d="M94.381 0.681702H92.061V38.2078H94.381V0.681702Z" fill="black"/>
</svg>
